<mxfile host="Electron" modified="2023-08-14T13:55:35.993Z" agent="Mozilla/5.0 (Windows NT 10.0; Win64; x64) AppleWebKit/537.36 (KHTML, like Gecko) draw.io/21.6.5 Chrome/114.0.5735.243 Electron/25.3.1 Safari/537.36" etag="-BBW-KG_sMyDqY1KTAd7" version="21.6.5" type="device">
  <diagram name="Page-1" id="-8noO8NHYeurxyKbWAPz">
    <mxGraphModel dx="880" dy="524" grid="1" gridSize="10" guides="1" tooltips="1" connect="1" arrows="1" fold="1" page="1" pageScale="1" pageWidth="850" pageHeight="1100" math="0" shadow="0">
      <root>
        <mxCell id="0" />
        <mxCell id="1" parent="0" />
        <mxCell id="vc-r3ApyCfsNHIiaNY2c-20" value="" style="group" vertex="1" connectable="0" parent="1">
          <mxGeometry x="5" y="20" width="835" height="440" as="geometry" />
        </mxCell>
        <mxCell id="vc-r3ApyCfsNHIiaNY2c-18" value="" style="rounded=0;whiteSpace=wrap;html=1;" vertex="1" parent="vc-r3ApyCfsNHIiaNY2c-20">
          <mxGeometry width="835" height="440" as="geometry" />
        </mxCell>
        <mxCell id="vc-r3ApyCfsNHIiaNY2c-8" value="" style="rounded=0;whiteSpace=wrap;html=1;dashed=1;" vertex="1" parent="vc-r3ApyCfsNHIiaNY2c-20">
          <mxGeometry x="228" y="90" width="250" height="230" as="geometry" />
        </mxCell>
        <mxCell id="vc-r3ApyCfsNHIiaNY2c-12" style="edgeStyle=orthogonalEdgeStyle;rounded=0;orthogonalLoop=1;jettySize=auto;html=1;entryX=0;entryY=0.5;entryDx=0;entryDy=0;" edge="1" parent="vc-r3ApyCfsNHIiaNY2c-20" source="vc-r3ApyCfsNHIiaNY2c-1" target="vc-r3ApyCfsNHIiaNY2c-8">
          <mxGeometry relative="1" as="geometry" />
        </mxCell>
        <mxCell id="vc-r3ApyCfsNHIiaNY2c-1" value="" style="strokeColor=#dddddd;shadow=1;strokeWidth=1;rounded=1;absoluteArcSize=1;arcSize=2;" vertex="1" parent="vc-r3ApyCfsNHIiaNY2c-20">
          <mxGeometry x="18" y="175" width="150" height="60" as="geometry" />
        </mxCell>
        <mxCell id="vc-r3ApyCfsNHIiaNY2c-2" value="&lt;font color=&quot;#000000&quot;&gt;Raw Data&lt;/font&gt;&lt;br&gt;Cloud Storage" style="editableCssRules=.*;html=1;fontColor=#999999;shape=image;verticalLabelPosition=middle;labelBackgroundColor=#ffffff;verticalAlign=middle;labelPosition=right;align=left;spacingLeft=20;part=1;points=[];imageAspect=0;image=data:image/svg+xml,PHN2ZyB4bWxucz0iaHR0cDovL3d3dy53My5vcmcvMjAwMC9zdmciIHhtbG5zOnY9Imh0dHBzOi8vdmVjdGEuaW8vbmFubyIgd2lkdGg9IjIwIiBoZWlnaHQ9IjE2IiB2aWV3Qm94PSIwIDAgMjAgMTYiPiYjeGE7CTxzdHlsZSB0eXBlPSJ0ZXh0L2NzcyI+JiN4YTsJLnN0MHtmaWxsOiM0Mjg1ZjQ7fSYjeGE7CS5zdDF7ZmlsbDojNjY5ZGY2O30mI3hhOwkuc3Qye2ZpbGw6I2FlY2JmYTt9JiN4YTsJLnN0M3tmaWxsOiNmZmY7fSYjeGE7CTwvc3R5bGU+JiN4YTsJPHBhdGggY2xhc3M9InN0MiIgZD0iTTAgMGgyMHY3SDB6Ii8+JiN4YTsJPHBhdGggY2xhc3M9InN0MSIgZD0iTTE4IDBoMnY3aC0yeiIvPiYjeGE7CTxwYXRoIGNsYXNzPSJzdDAiIGQ9Ik0xOCA3bDItN2gtMnoiLz4mI3hhOwk8cGF0aCBjbGFzcz0ic3QxIiBkPSJNMCAwaDJ2N0gweiIvPiYjeGE7CTxnIGNsYXNzPSJzdDMiPiYjeGE7CQk8cGF0aCBkPSJNNCAzaDZ2MUg0eiIvPiYjeGE7CQk8cmVjdCB4PSIxMyIgeT0iMiIgd2lkdGg9IjMiIGhlaWdodD0iMyIgcng9IjEuNSIvPiYjeGE7CTwvZz4mI3hhOwk8cGF0aCBjbGFzcz0ic3QyIiBkPSJNMCA5aDIwdjdIMHoiLz4mI3hhOwk8cGF0aCBjbGFzcz0ic3QxIiBkPSJNMTggOWgydjdoLTJ6Ii8+JiN4YTsJPHBhdGggY2xhc3M9InN0MCIgZD0iTTE4IDE2bDItN2gtMnoiLz4mI3hhOwk8cGF0aCBjbGFzcz0ic3QxIiBkPSJNMCA5aDJ2N0gweiIvPiYjeGE7CTxnIGNsYXNzPSJzdDMiPiYjeGE7CQk8cGF0aCBkPSJNNCAxMmg2djFINHoiLz4mI3hhOwkJPHJlY3QgeD0iMTMiIHk9IjExIiB3aWR0aD0iMyIgaGVpZ2h0PSIzIiByeD0iMS41Ii8+JiN4YTsJPC9nPiYjeGE7PC9zdmc+;" vertex="1" parent="vc-r3ApyCfsNHIiaNY2c-1">
          <mxGeometry width="30" height="24" relative="1" as="geometry">
            <mxPoint x="15" y="18" as="offset" />
          </mxGeometry>
        </mxCell>
        <mxCell id="vc-r3ApyCfsNHIiaNY2c-3" value="" style="strokeColor=#dddddd;shadow=1;strokeWidth=1;rounded=1;absoluteArcSize=1;arcSize=2;" vertex="1" parent="vc-r3ApyCfsNHIiaNY2c-20">
          <mxGeometry x="263" y="230" width="170" height="60" as="geometry" />
        </mxCell>
        <mxCell id="vc-r3ApyCfsNHIiaNY2c-4" value="&lt;font color=&quot;#000000&quot;&gt;Mage VM&lt;/font&gt;&lt;br&gt;Compute Engine" style="editableCssRules=.*;html=1;fontColor=#999999;shape=image;verticalLabelPosition=middle;labelBackgroundColor=#ffffff;verticalAlign=middle;labelPosition=right;align=left;spacingLeft=20;part=1;points=[];imageAspect=0;image=data:image/svg+xml,PHN2ZyB4bWxucz0iaHR0cDovL3d3dy53My5vcmcvMjAwMC9zdmciIHhtbG5zOnY9Imh0dHBzOi8vdmVjdGEuaW8vbmFubyIgd2lkdGg9IjIwIiBoZWlnaHQ9IjIwIiB2aWV3Qm94PSIwIDAgMjAgMjAiPiYjeGE7CTxzdHlsZSB0eXBlPSJ0ZXh0L2NzcyI+JiN4YTsJLnN0MHtmaWxsOiM0Mjg1ZjQ7fSYjeGE7CS5zdDF7ZmlsbDojNjY5ZGY2O30mI3hhOwkuc3Qye2ZpbGw6I2FlY2JmYTt9JiN4YTsJPC9zdHlsZT4mI3hhOwk8cGF0aCBjbGFzcz0ic3QyIiBkPSJNNyA3aDZ2Nkg3eiIvPiYjeGE7CTxwYXRoIGNsYXNzPSJzdDEiIGQ9Ik05IDBoMnY0SDl6TTUgMGgydjRINXptOCAwaDJ2NGgtMnoiLz4mI3hhOwk8cGF0aCBjbGFzcz0ic3QwIiBkPSJNOSAxNmgydjRIOXptLTQgMGgydjRINXptOCAwaDJ2NGgtMnptMy01VjloNHYyem0wIDR2LTJoNHYyem0wLThWNWg0djJ6Ii8+JiN4YTsJPHBhdGggY2xhc3M9InN0MSIgZD0iTTAgMTFWOWg0djJ6bTAgNHYtMmg0djJ6bTAtOFY1aDR2MnoiLz4mI3hhOwk8cGF0aCBjbGFzcz0ic3QyIiBkPSJNMyAzdjE0aDE0VjN6bTEyIDEySDVWNWgxMHoiLz4mI3hhOwk8cGF0aCBjbGFzcz0ic3QxIiBkPSJNMTAgMTBsLTMgM2g2eiIvPiYjeGE7CTxwYXRoIGNsYXNzPSJzdDAiIGQ9Ik0xMyA3bC0zIDMgMyAzeiIvPiYjeGE7PC9zdmc+;" vertex="1" parent="vc-r3ApyCfsNHIiaNY2c-3">
          <mxGeometry width="30" height="30" relative="1" as="geometry">
            <mxPoint x="15" y="15" as="offset" />
          </mxGeometry>
        </mxCell>
        <mxCell id="vc-r3ApyCfsNHIiaNY2c-7" value="" style="group" vertex="1" connectable="0" parent="vc-r3ApyCfsNHIiaNY2c-20">
          <mxGeometry x="258" y="130" width="190" height="65.55" as="geometry" />
        </mxCell>
        <mxCell id="vc-r3ApyCfsNHIiaNY2c-6" value="" style="rounded=0;whiteSpace=wrap;html=1;" vertex="1" parent="vc-r3ApyCfsNHIiaNY2c-7">
          <mxGeometry width="190" height="65.55" as="geometry" />
        </mxCell>
        <mxCell id="vc-r3ApyCfsNHIiaNY2c-5" value="" style="shape=image;aspect=fixed;image=data:image/svg+xml,PHN2ZyB3aWR0aD0iOTYzIiBoZWlnaHQ9IjI1NSIgdmlld0JveD0iMCAwIDk2MyAyNTUiIGZpbGw9Im5vbmUiIHhtbG5zPSJodHRwOi8vd3d3LnczLm9yZy8yMDAwL3N2ZyI+CjxwYXRoIGZpbGwtcnVsZT0iZXZlbm9kZCIgY2xpcC1ydWxlPSJldmVub2RkIiBkPSJNNzY3LjA4NCAxMjIuNjYzSDgzMy4zMTNWMTc4LjU2NUg4MTMuNTQyTDgxMi4zOTIgMTYyLjEyM0M4MDIuNTAyIDE3Mi44MTEgNzg2Ljg1NCAxODAuMDQ1IDc2NC42MTIgMTgwLjA0NUM3MjYuMDYgMTgwLjA0NSA3MDIuNTAxIDE2MC45NzIgNzAyLjUwMSAxMjYuNDQ1QzcwMi41MDEgOTEuOTE2NyA3MjYuMDYgNzIuODQzOCA3NjkuMDYyIDcyLjg0MzhDODEwLjkwMyA3Mi44NDM4IDgzMS42NjggODkuMTIxNiA4MzMuMzEzIDExNC45MzVIODA1Ljk2OUM4MDQuNDg1IDEwNy4wNDMgNzk3LjIyOSA5NS4yMDQ3IDc2OC45MDEgOTUuMjA0N0M3MzMuOTY3IDk1LjIwNDcgNzI5LjE4OSAxMTQuNDQyIDcyOS4xODkgMTI2LjkzOEM3MjkuMTg5IDEzOS41OTkgNzM0LjEzNCAxNTkuMzI4IDc2OC45MDEgMTU5LjMyOEM3OTQuOTI4IDE1OS4zMjggODA1LjMwMiAxNDcuOTgzIDgwNS45NjkgMTQwLjA5MUg3NjcuMDg0VjEyMi42NjNWMTIyLjY2M1pNNTI1Ljg4NyAxNzguNzMxSDU1Mi41OFY3NC40ODg4SDUxNi4zMzNMNDcyLjY3NCAxNDcuOTg0TDQyOS4wMTUgNzQuNDg4OEgzOTIuNzdWMTc4LjczMUg0MTkuNjI0VjEwNy4yMDhMNDYzLjExOCAxNzguNzMxSDQ4Mi4zOTRMNTI1Ljg4NyAxMDcuMjA4VjE3OC43MzFaTTYwMy4xNjEgMTU2LjUzNEg2NjUuNkw2NzYuOTY4IDE3OC43MzFINzA2LjYyM0w2NTIuNTgxIDc0LjQ4ODhINjE2LjMzNkw1NjIuNDY1IDE3OC43MzFINTkxLjk1NEw2MDMuMTYxIDE1Ni41MzRWMTU2LjUzNFpNNjM0LjQ2MSA5NC4zODM0TDY1NS43MTUgMTM2LjY0SDYxMy4wNDFMNjM0LjQ2MSA5NC4zODM0Wk04NzkuMjgyIDExNy4wNzNWOTUuODYzNUg5NjIuODA3Vjc0LjQ4ODhIODUyLjQyN1YxNzkuMDZIOTYyLjgwN1YxNTcuNjg1SDg3OS4yODJWMTM2LjQ3NUg5NjIuODA3VjExNy4wNzNIODc5LjI4MlYxMTcuMDczWiIgZmlsbD0iYmxhY2siLz4KPHBhdGggZmlsbC1ydWxlPSJldmVub2RkIiBjbGlwLXJ1bGU9ImV2ZW5vZGQiIGQ9Ik0xMzAuOTM3IDIuMjVIMjA2LjQ0NUwyMDYuNDQ1IDk1Ljg3ODhMMjU1LjMzMyAyLjI1SDMzMC44NjFWMjUwLjkyNUgyNTMuMzAyVjE1Ny4yMzJMMjA0LjM5NSAyNTAuODk3TDEyOC44NzEgMjUwLjkyN0wxMjguODg0IDE1Ny4yNzVMNzkuOTg0NyAyNTAuOTI1SDEuMDkyOTNMMTMwLjkzNyAyLjI1Wk0xMzQuMDkyIDEzNi4wNTVMMTM0LjA3OCAyNDUuNzIxTDIwMS4yMzkgMjQ1LjY5NEwyNTguNTA3IDEzNi4wMTZWMjQ1LjcyMUgzMjUuNjU1VjcuNDU0MUgyNTguNDg3TDIwMS4yMzkgMTE3LjA5NEwyMDEuMjQgNy40NTQxSDEzNC4wOTJMOS42ODIxNSAyNDUuNzIxSDc2LjgzMDJMMTM0LjA5MiAxMzYuMDU1VjEzNi4wNTVaIiBmaWxsPSJibGFjayIvPgo8cGF0aCBkPSJNMjAxLjI0IDcuNDUzMTJIMTM0LjA5Mkw5LjY4MjAxIDI0NS43Mkg3Ni44MzAyTDEzNC4wOTIgMTM2LjA1NFYyNDUuNzJIMjAxLjIzOVY3LjQ1NDUzTDIwMS4yNCA3LjQ1MzEyVjcuNDUzMTJaIiBmaWxsPSJ1cmwoI3BhaW50MF9saW5lYXJfNzg5XzE0KSIvPgo8cGF0aCBvcGFjaXR5PSIwLjQiIGQ9Ik0yNTguNDg3IDcuNDUzMTJIMzI1LjYzNUwyMDEuMjI1IDI0NS43MkgxMzQuMDc3TDI1OC40ODcgNy40NTMxMloiIGZpbGw9InVybCgjcGFpbnQxX2xpbmVhcl83ODlfMTQpIi8+CjxwYXRoIGQ9Ik0yNTguNTA3IDcuNDUzMTJIMzI1LjY1NVYyNDUuNzJIMjU4LjUwN1Y3LjQ1MzEyWiIgZmlsbD0idXJsKCNwYWludDJfbGluZWFyXzc4OV8xNCkiLz4KPGRlZnM+CjxsaW5lYXJHcmFkaWVudCBpZD0icGFpbnQwX2xpbmVhcl83ODlfMTQiIHgxPSItNi42MDQ5OCIgeTE9IjcuNDUzMDciIHgyPSIyODYuNzk5IiB5Mj0iMzYuMzUzNSIgZ3JhZGllbnRVbml0cz0idXNlclNwYWNlT25Vc2UiPgo8c3RvcCBzdG9wLWNvbG9yPSIjRkZDQzE5Ii8+CjxzdG9wIG9mZnNldD0iMC41ODU5MzgiIHN0b3AtY29sb3I9IiMyRUNERjciLz4KPHN0b3Agb2Zmc2V0PSIxIiBzdG9wLWNvbG9yPSIjOUU3QkZGIi8+CjwvbGluZWFyR3JhZGllbnQ+CjxsaW5lYXJHcmFkaWVudCBpZD0icGFpbnQxX2xpbmVhcl83ODlfMTQiIHgxPSIxMjQuMjAzIiB5MT0iNy40NTMwNyIgeDI9IjMwMy4xNyIgeTI9IjE4LjE0MDQiIGdyYWRpZW50VW5pdHM9InVzZXJTcGFjZU9uVXNlIj4KPHN0b3Agc3RvcC1jb2xvcj0iI0ZGQ0MxOSIvPgo8c3RvcCBvZmZzZXQ9IjAuNTg1OTM4IiBzdG9wLWNvbG9yPSIjMkVDREY3Ii8+CjxzdG9wIG9mZnNldD0iMSIgc3RvcC1jb2xvcj0iIzlFN0JGRiIvPgo8L2xpbmVhckdyYWRpZW50Pgo8bGluZWFyR3JhZGllbnQgaWQ9InBhaW50Ml9saW5lYXJfNzg5XzE0IiB4MT0iLTYuNTk5MTciIHkxPSI3LjQ1MzAyIiB4Mj0iMjg2LjgwNCIgeTI9IjM2LjM1MzUiIGdyYWRpZW50VW5pdHM9InVzZXJTcGFjZU9uVXNlIj4KPHN0b3Agc3RvcC1jb2xvcj0iI0ZGQ0MxOSIvPgo8c3RvcCBvZmZzZXQ9IjAuNTg1OTM4IiBzdG9wLWNvbG9yPSIjMkVDREY3Ii8+CjxzdG9wIG9mZnNldD0iMSIgc3RvcC1jb2xvcj0iIzlFN0JGRiIvPgo8L2xpbmVhckdyYWRpZW50Pgo8L2RlZnM+Cjwvc3ZnPgo=;" vertex="1" parent="vc-r3ApyCfsNHIiaNY2c-7">
          <mxGeometry x="11.65909090909091" y="11.83996874999999" width="157.1784173635762" height="41.62377674327658" as="geometry" />
        </mxCell>
        <mxCell id="vc-r3ApyCfsNHIiaNY2c-10" value="ETL" style="text;html=1;strokeColor=none;fillColor=none;align=center;verticalAlign=middle;whiteSpace=wrap;rounded=0;" vertex="1" parent="vc-r3ApyCfsNHIiaNY2c-20">
          <mxGeometry x="238" y="100" width="30" height="20" as="geometry" />
        </mxCell>
        <mxCell id="vc-r3ApyCfsNHIiaNY2c-17" style="edgeStyle=orthogonalEdgeStyle;rounded=0;orthogonalLoop=1;jettySize=auto;html=1;" edge="1" parent="vc-r3ApyCfsNHIiaNY2c-20" source="vc-r3ApyCfsNHIiaNY2c-13">
          <mxGeometry relative="1" as="geometry">
            <mxPoint x="758" y="205" as="targetPoint" />
          </mxGeometry>
        </mxCell>
        <mxCell id="vc-r3ApyCfsNHIiaNY2c-13" value="" style="strokeColor=#dddddd;shadow=1;strokeWidth=1;rounded=1;absoluteArcSize=1;arcSize=2;" vertex="1" parent="vc-r3ApyCfsNHIiaNY2c-20">
          <mxGeometry x="548" y="175" width="130" height="60" as="geometry" />
        </mxCell>
        <mxCell id="vc-r3ApyCfsNHIiaNY2c-14" value="&lt;font color=&quot;#000000&quot;&gt;Analytics&lt;/font&gt;&lt;br&gt;BigQuery" style="editableCssRules=.*;html=1;fontColor=#999999;shape=image;verticalLabelPosition=middle;labelBackgroundColor=#ffffff;verticalAlign=middle;labelPosition=right;align=left;spacingLeft=20;part=1;points=[];imageAspect=0;image=data:image/svg+xml,PHN2ZyB4bWxucz0iaHR0cDovL3d3dy53My5vcmcvMjAwMC9zdmciIHhtbG5zOnY9Imh0dHBzOi8vdmVjdGEuaW8vbmFubyIgd2lkdGg9IjIwLjAwMTA0NTIyNzA1MDc4IiBoZWlnaHQ9IjIwLjAwMTA0NTIyNzA1MDc4IiBmaWxsLXJ1bGU9ImV2ZW5vZGQiIHZpZXdCb3g9IjAgMCAyMC4wMDEwNDUyMjcwNTA3OCAyMC4wMDEwNDUyMjcwNTA3OCI+JiN4YTsJPHN0eWxlIHR5cGU9InRleHQvY3NzIj4mI3hhOwkuc3Qwe2ZpbGw6I2FlY2JmYTt9JiN4YTsJLnN0MXtmaWxsOiM2NjlkZjY7fSYjeGE7CS5zdDJ7ZmlsbDojNDI4NWY0O30mI3hhOwk8L3N0eWxlPiYjeGE7CTxwYXRoIGNsYXNzPSJzdDAiIGQ9Ik00LjczIDguODN2Mi42M2E0LjkxIDQuOTEgMCAwIDAgMS43MSAxLjc0VjguODN6Ii8+JiN4YTsJPHBhdGggY2xhc3M9InN0MSIgZD0iTTcuODkgNi40MXY3LjUzQTcuNjIgNy42MiAwIDAgMCA5IDE0YTggOCAwIDAgMCAxIDBWNi40MXoiLz4mI3hhOwk8cGF0aCBjbGFzcz0ic3QwIiBkPSJNMTEuNjQgOS44NnYzLjI5YTUgNSAwIDAgMCAxLjctMS44MlY5Ljg2eiIvPiYjeGE7CTxwYXRoIGNsYXNzPSJzdDIiIGQ9Ik0xNS43NCAxNC4zMmwtMS40MiAxLjQyYS40Mi40MiAwIDAgMCAwIC42bDMuNTQgMy41NGEuNDIuNDIgMCAwIDAgLjU5IDBsMS40My0xLjQzYS40Mi40MiAwIDAgMCAwLS41OWwtMy41NC0zLjU0YS40Mi40MiAwIDAgMC0uNiAwIi8+JiN4YTsJPHBhdGggY2xhc3M9InN0MSIgZD0iTTkgMGE5IDkgMCAxIDAgMCAxOEE5IDkgMCAxIDAgOSAwbTAgMTUuNjlhNi42OCA2LjY4IDAgMCAxIC4wMDctMTMuMzYgNi42OCA2LjY4IDAgMCAxIDQuNzI3IDExLjQwM0E2LjY4IDYuNjggMCAwIDEgOSAxNS42OSIvPiYjeGE7PC9zdmc+;" vertex="1" parent="vc-r3ApyCfsNHIiaNY2c-13">
          <mxGeometry width="30" height="30" relative="1" as="geometry">
            <mxPoint x="15" y="15" as="offset" />
          </mxGeometry>
        </mxCell>
        <mxCell id="vc-r3ApyCfsNHIiaNY2c-15" style="edgeStyle=orthogonalEdgeStyle;rounded=0;orthogonalLoop=1;jettySize=auto;html=1;entryX=0;entryY=0.5;entryDx=0;entryDy=0;" edge="1" parent="vc-r3ApyCfsNHIiaNY2c-20" source="vc-r3ApyCfsNHIiaNY2c-8" target="vc-r3ApyCfsNHIiaNY2c-13">
          <mxGeometry relative="1" as="geometry" />
        </mxCell>
        <mxCell id="vc-r3ApyCfsNHIiaNY2c-16" value="Looker" style="sketch=0;html=1;verticalAlign=top;labelPosition=center;verticalLabelPosition=bottom;align=center;spacingTop=-6;fontSize=11;fontStyle=1;fontColor=#999999;shape=image;aspect=fixed;imageAspect=0;image=data:image/svg+xml,PHN2ZyB4bWxucz0iaHR0cDovL3d3dy53My5vcmcvMjAwMC9zdmciIGlkPSJzdmc4OTgwMSIgdmVyc2lvbj0iMS4xIiB2aWV3Qm94PSIwIDAgMjA4LjA1NjU1IDMzNC42MTMxNiIgaGVpZ2h0PSIzMzQuNjEzMTZtbSIgd2lkdGg9IjIwOC4wNTY1NW1tIj4mI3hhOyAgJiN4YTsgIDxkZWZzIGlkPSJkZWZzODk3OTgiLz4mI3hhOyAgPGcgdHJhbnNmb3JtPSJ0cmFuc2xhdGUoLTQuMjQ2MjUyNCwxNS42NzE5MTEpIiBpZD0ibGF5ZXIxIj4mI3hhOyAgICA8cGF0aCBpZD0icGF0aDkxODAyIiB0cmFuc2Zvcm09InNjYWxlKDAuMjY0NTgzMzMpIiBkPSJtIDQwOS4yMjI2Niw0MTkuMDk5NjEgYyAtMzYuNjA4MTEsMCAtNzIuMDc2NjcsNS4wNzUzIC0xMDUuNzUzOTEsMTQuNTMxMjUgbCA0OS4wMzUxNiwxMjAuMDQxMDIgYyAxOC4yNjE3MiwtMy45Mzg5OSAzNy4yMjE5NiwtNi4wNjgzNiA1Ni43MTg3NSwtNi4wNjgzNiAxNDYuOTM1MTQsMCAyNjQuNjc3NzMsMTE3LjczNDc3IDI2NC42Nzc3MywyNjQuNjY5OTIgMCwxNDYuOTM1MTQgLTExNy43NDI1OSwyNjQuNjY5OTYgLTI2NC42Nzc3MywyNjQuNjY5OTYgLTE0Ni45MzUxNiwwIC0yNjQuNjY5OTEsLTExNy43MzQ4MiAtMjY0LjY2OTkzLC0yNjQuNjY5OTYgMCwtOTkuMTg3NjMgNTMuNjg5ODMsLTE4NS4wMDU5NiAxMzMuNzU1ODYsLTIzMC4zNDc2NiBMIDIyOS42MjY5NSw0NjIuNzUgQyAxMDMuMDI0Nyw1MjguMjI0NzQgMTYuMDQ4ODI3LDY2MC41MDUyMyAxNi4wNDg4MjgsODEyLjI3MzQ0IGMgMi4zZS01LDIxNi4zODM3NiAxNzYuNzkwMDYyLDM5My4xNzM4NiAzOTMuMTczODMyLDM5My4xNzM4NiAyMTYuMzgzNzMsMCAzOTMuMTgxNjQsLTE3Ni43OTAxIDM5My4xODE2NCwtMzkzLjE3Mzg2IDNlLTUsLTIxNi4zODM3OCAtMTc2Ljc5Nzg3LC0zOTMuMTczODMgLTM5My4xODE2NCwtMzkzLjE3MzgzIHoiIHN0eWxlPSJjb2xvcjojMDAwMDAwO29wYWNpdHk6MTtmaWxsOiM1OTg2ZjI7ZmlsbC1vcGFjaXR5OjE7c3Ryb2tlLXdpZHRoOjMuNzc5NTM7c3Ryb2tlLWxpbmVqb2luOnJvdW5kOy1pbmtzY2FwZS1zdHJva2U6bm9uZSIvPiYjeGE7ICAgIDxwYXRoIGQ9Im0gMTg5Ljk0MzM2LDg2LjI1IGMgLTk1LjEzMDMzMSwwIC0xNzMuMTc5Njg4LDc4LjA1NTIyIC0xNzMuMTc5Njg4LDE3My4xODU1NSAtNmUtNiw5NS4xMzAzMyA3OC4wNDkzNTMsMTczLjE3OTY4IDE3My4xNzk2ODgsMTczLjE3OTY4IDkuMDE2MTgsMCAxNy44NzU4LC0wLjcwODMyIDI2LjUzMzIsLTIuMDU4NTkgbCAtMzQuODI4MTIsLTg1LjI2NTYyIGMgLTQ0LjE1NzMsLTQuMDg2NjkgLTc3Ljk1NTA4LC00MC41MDcwNSAtNzcuOTU1MDgsLTg1Ljg1NTQ3IDAsLTQ4LjE1MDM5IDM4LjA5OTYyLC04Ni4yNTU4NiA4Ni4yNSwtODYuMjU1ODYgMTMuMTU5NzcsMCAyNS41NTg4OCwyLjg2MjQ2IDM2LjY0NDUzLDcuOTgyNDIgbCA2NC41NTQ2OSwtNjEuOTE5OTIgQyAyNjIuNjA4MzcsOTguNTMzOTEgMjI3LjYyOTI5LDg2LjI1IDE4OS45NDMzNiw4Ni4yNSBaIG0gMTM4Ljg4ODY3LDcwLjE2MjExIC02My40Mjc3Myw2MC44MzU5NCBjIDYuODc2MzgsMTIuNDI2NzggMTAuNzg5MDYsMjYuNzg4MTUgMTAuNzg5MDYsNDIuMTg3NSAwLDIxLjc2NzEyIC03LjgwNDE1LDQxLjQ2NTQgLTIwLjc4NTE2LDU2LjUzMzIgbCAzNC41MjM0NCw4NC41MTk1MyBjIDQ0LjE3Mzg3LC0zMS40ODc1MSA3My4xOTE0MSwtODMuMDc4OTIgNzMuMTkxNDEsLTE0MS4wNTI3MyAwLC0zOC40ODM1NSAtMTIuNzgyLC03NC4xNjUzMiAtMzQuMjkxMDIsLTEwMy4wMjM0NCB6IiB0cmFuc2Zvcm09InNjYWxlKDAuMjY0NTgzMzMpIiBzdHlsZT0iY29sb3I6IzAwMDAwMDtvcGFjaXR5OjE7ZmlsbDojNmY5OGY0O2ZpbGwtb3BhY2l0eToxO3N0cm9rZS13aWR0aDozLjc3OTUzO3N0cm9rZS1saW5lam9pbjpyb3VuZDstaW5rc2NhcGUtc3Ryb2tlOm5vbmUiIGlkPSJwYXRoOTE3OTgiLz4mI3hhOyAgICA8cGF0aCBpZD0icGF0aDg5OTI4IiB0cmFuc2Zvcm09InNjYWxlKDAuMjY0NTgzMzMpIiBkPSJtIDQwNi4xMzY3MiwtNTkuMjMyNDIyIGMgLTU4LjgxNTQ3LDhlLTYgLTEwNy4xMDM1Miw0OC4yODgwNDUgLTEwNy4xMDM1MiwxMDcuMTAzNTE2IDAsMTguNDk0NDUxIDQuNzgxMDEsMzUuOTQ1MDE3IDEzLjE1NjI1LDUxLjE4MzU5NCBsIDQ0LjMxMjUsLTQyLjUwMzkwNyBjIC0wLjQ3NTY3LC0yLjgyMDc3NSAtMC43NzUzOSwtNS43MDc1NjQgLTAuNzc1MzksLTguNjc5Njg3IDAsLTI4LjE3NjM4IDIyLjIzMzc4LC01MC40MTAxNTI1IDUwLjQxMDE2LC01MC40MTAxNTY1IDI4LjE3NjM4LC00ZS02IDUwLjQxMDE1LDIyLjIzMzc3MDUgNTAuNDEwMTYsNTAuNDEwMTU2NSAwLDI4LjE3NjM4MSAtMjIuMjMzNzgsNTAuNDEyMTEzIC01MC40MTAxNiw1MC40MTIxMDkgLTUuMDY4NjksLTEwZS03IC05LjkzNDE3LC0wLjc0NTYzMSAtMTQuNTIzNDQsLTIuMDg5ODQ0IGwgLTQzLjM2MTMzLDQxLjU5MTgwMSBjIDE2LjczMjIzLDEwLjg0Nzk1IDM2LjYxMTIzLDE3LjE4OTQ1IDU3Ljg4NDc3LDE3LjE4OTQ1IDU4LjgxNTQ5LDEwZS02IDEwNy4xMDM1MSwtNDguMjg4MDQgMTA3LjEwMzUxLC0xMDcuMTAzNTE2IDAsLTU4LjgxNTQ4MyAtNDguMjg4MDIsLTEwNy4xMDM1MjMgLTEwNy4xMDM1MSwtMTA3LjEwMzUxNiB6IiBzdHlsZT0iY29sb3I6IzAwMDAwMDtvcGFjaXR5OjE7ZmlsbDojZDZlM2ZiO2ZpbGwtb3BhY2l0eToxO3N0cm9rZS13aWR0aDozLjc3OTUzO3N0cm9rZS1saW5lam9pbjpyb3VuZDstaW5rc2NhcGUtc3Ryb2tlOm5vbmUiLz4mI3hhOyAgPC9nPiYjeGE7PC9zdmc+;" vertex="1" parent="vc-r3ApyCfsNHIiaNY2c-20">
          <mxGeometry x="768" y="162" width="53.24" height="86" as="geometry" />
        </mxCell>
        <mxCell id="vc-r3ApyCfsNHIiaNY2c-19" value="" style="shape=image;aspect=fixed;image=data:image/png,iVBORw0KGgoAAAANSUhEUgAAAhkAAABeCAMAAAC5BvZEAAABIFBMVEX///9fY2hChfTqQzX7vAQ0qFNZXWL7ugBcYGXv+fJbtXEvp1Ado0XR6NY8gvSipKcyfvPqPi/G2fxUWF5OU1npOirn8P7n6Ol1pfa/wMLP0dKlp6nc3d75+fnpPCzpNyZ/gob+9/bc7uC3zPqXmZzE5Mzw8fFIifSytLYte/Pj4+SGiYx3en5laW72+f7W4/z+9uWhv/n//vf96+rrTkH3u7fS4fz4ycbympSJsPhbk/Xi6/1TkPWZu/hunvb0pJ7xiYLsWEz4x8TtY1npLhp8qff84N3+6rn936Tucmn1q6X92YXyk4z8xzjubWT2trL+8tT81G/8zl395a/7xT/94Jb92n/8zVj/9t28z/r7xCf97sj7zErwgHj96LcAnjZ40jlIAAAWgElEQVR4nO1da0PayroG8cR0nb1DAgXkGtiwAeUmoiJXb0irtVrb2lYt6/z/f3GSkLlmZhJYolJ5vqxVYJIx8+Sd9z4+nwjRXiOUbw46nUGzGWr0osIfr/BW0Mt3hn1FVVXFgPmf/vC8efDSs1rhhRHN901KrBEwCaI0Gy89t7nwH4h3Lz2VZUZv0FcpVkCoa50lFBzv/vofG//690vPZXnR2OTSYio61OHSyY13f/3vihn/EPXOmpAXFjdKzfpLz3M2vAAz0rFiMf1M93oG1PPuvLD2lNJybSnPyIzidiJZqcmSjWohniou+JbPgOi56oUXU7Hx0pOdBc/GjO1gVQ5LsuwHkKWwwY4E67fxYNJEkPnlC6E4nVMySX58UPIkMGyx0VmiHeV5mFGMVyUJkQJjh1QrOwVHMGxJlXBwcTOaGbH3tqwjPs07iWF5MizQJqzx3fkLzX4OPAszEtUwgxaAHNU4rXUEJesr6VUxI2xPGP+wSa+9ovaHnUE+1GiEmoPzYYk2WbbyLzX/mfEMzNjOssQFzo0atW0sCzMGCkUL5fy+h31fb9xvKjg51M5zT3t+LJwZxaBfEvHC4oa/TIxZEmY0Sd1T6d4z1Ih6swupoS6TCrpoZqSqNC9kC9SHUgXXNpaDGfeExFBLeY56GW3ayog6eKa5PgkWzIxUDSeGYY6E/dVspZKtSe/DxB4jZTFqLAUzejgxxI6s+lBZNomxaGYkatjqS7VsMJ62tc10OlU2+IG+lqqIGoAZSc5lXwI0M6arDYkREg6uN7cUZbmIsVhmJPzYyvuDKfr7VBkzWqQKNFGWQWZ0MCVD6faEYw3cl5bHKplikczAJIZcK7Ad4gm03YTj4MMlYMYBRgx100OCjit3XhsWyIxtRIxw1iEvAGIV+5FjPHj9zMD3EmW4RJ5N71gcM4rQKpHlsiCClk5KNA1ePzMwg1XpL5048ITFMaMAieGPi38ZDFMseP3MwM2S5QqhesbCmFEGT1KucXcSG+mgRJLg1TMjj2kZy6ZZesWimAGVDHdiGCiQHHjtzIgiLWOZYmSzYVHMQHuJy1ZigVJDXjszQkhkqH+mkuFbGDMS4DmG5/FWvXZmbL4BkbEoZlTsvUTiuDHEeOXMqG9BkVF68sTfcXv/5ujwcv+0nfM6ZPfxw7ePnz59/Pbh8QknshhmJIAjwx+bZ/grZwbSP59YZORaRxd7AU3XI3okEDiZnHogx+7j7ff19fUNA+vrD99/PO56uFE9GsoPzofD80Gzx3PGuDIj196/PDw+vjq8aXkmMVjaeSMfLnGTdKocLFSy2WwhmIwvIpW0mIgnC9lKIRlPQZGHMaODwur3T3jX3P6ZrmsBCC0zihyPxWN2Pq2bjEDY2Hi42xGPqYeaQ9UupFNUtdu0PLi9PIDt0BUzo3V6vDcyKGxC188O297+xqJtmMi1+dZNKDMSyaqZDGiG8s2MQH+BSY5UfApOKqn9rSObzEAsXvCHw+YNjKuHq2XbtELMwCwT9Qm9n+0zDaOFjUzgqsUfsnv3QNDCJsfnjwK5UQ9114hMM0Xpm4b3/Zado7hlBwdFzGgdnWQi2DQ1PXDhiRtA/5TK7r9lQcCMVMVPZYhJUpVh/gTfh028L7DvMP02/N652ZVrEpk4UKtYPyq+B8xoYH7x+f4+BloT3ckLE7p2wxvzN4sXU25wFY5Ql1EzpQ6jvnuwRaquzMgdBZyTzYwuXOSbCWCy1ubSMgTM2C6wEkrlsJMbLqqKvcxheoKJrPMGkpVxhpiBbFb1ybxc4zOdyQsTkSv2Nv6RTQuLGut/M4fUN9m1MWq34Z0ZresIe557+65/Z9XeTKqzPR4I3rKWa5zEQVkuFL1dwgaHGWU/K2NVNi2sNGQGipk8WW1R29g2+BhNWNT4xBEYNu4YQ3pDXm2Msga3SDdm7O/x5qrpzIliSNXsl23OzYS3rEl+Bro/nC16uQQAYAY5KBnmXb0Ah/gxBbT/RDZre4+9k0BJfeF84i7EYFGjIaqNQbqTmBn7DG0IQj8WUyNhL2B4e84nxbZNCuT+b2mh6AMpG2NdYhZmlPk3MKYCNVD4dildbl5GdLjpAoxU44CYGOYTp29w50aM9fVv1JCet6IpMTNORcQwJjrhPREL8ekTlqvzWpTMZcVeaDksmxZroVILo8WUqmm3SyCwmFHGb+DPFpLlYKUKbhAOgu98XfiaCZixpYiB2bu5C2Lf1iIRTctEMsQK0GroF1qx2Jg6NAj8IobUu1QNhGLZrbMxo0VKN2OuGWOu2Gf6Ee+RWGtoM6Myb10zS2YkUH6YVC3HzJrpdLqYqKCahVkC+QxmbGPiohq3buBLF1MF2b4SZEYfPlt+yk50y/HEqeePlNdjXPmMBK4PL0/bN5fHZ4T+rxNG4c4DSYvPt3d3d59uHwhybHzGjdf6JqFjKGq3M8g3B5slWvUQMSM3wUkc0a+vjvZPb46usalGTrnLCsX+fJ5xE4xl3Ya2KmWkbhdQ5lhZeAkcTmYUq+A6MnmDWIFUe1FuhsBodWcGrDA4xYhhui/snTrXal9jL6N2hu/gtxs4L3582bE4sLvz5XYd/+YTNqRJ+jA2G1N5V+/RBZgiZuxjxNAix2Mw1zbSSrUT7kPxpQviVXGHc1nTFUgM2goxNi/43bbgEgSczABuW6r0xboBofj6Sk8hMxTAjNwZ9r5NSLfW/gn23SX6/Au+/Ldf8CGPP3GxgfaTKEEMos9LvUlwQ8CMHKZk6IT7ojWB/NaveA8FruLcpgljWeOi2C3MRJYKgksQcDADujjlrFPSxXGp4VHPcGMGqGM8xR62Q7PHdFPtBH2JiYyNW2rI7k/mlwM8o3lAMZoo6Bcw4wiJjAg1V0Rw7YTrtV0EMxhrjwHG/P0p/iUIOJgBRIbM9M4FMWrgtgk3OcMzMzCR4TRADGogqaFDofGISQyG2+IHJjWAPGmUnLfGgH/NZ0brjDEZgHaA/x3AApgB7Ek5yzZ3kiCBrMq9BAmaGSmw7hIz0II2M4MZ5x78GZ6Z0R4hTYL1rp1G0PfgLUVLv/GbMWT384aDOB0s1X2TsQdi6Yt8ZrThjhFxGKfjY6SA7PGeytMzo5gFHhJO5mAa/OD9NucSFGhmJEFwmBNn2X6PmOHFB+qZGVdo5dlhh0OkoNrmyS4SCZ+ZYdVf2A+m5kkdu3OJqRx1PHi6ruGGQZG4tX8ywhyjOi+4BjXQuYsP6WXdFu4lJmAML8m5BAWaGTA4zHPOIQPFU9wkCiKXFBSaGfBpZy7YVxqjrd32afxyigQKmH90Sp0DRFROde2BB5kBSUw6LcaHJxHCyxHh6qBgVbjr6AZ6WYH+KUg2BqEa4EOZjRkxF5GBPP5krHWTO58oG7Djhm21jvfA48zwIpWHYEEydlQCc39you1IaGx8tD5AEoGrNZ+7xk3GUHplkPbZOr0eRSi3qM7cF02Un8rTBZY1C5adPyQhkS/9bMwAxgdvt/Kh/EW/L4qcicqsfyFixlTc7AMhzNYyTEDjRdubLshXwAyHXQLxG/7kq/lPzP2p8Do1QLHCZQZ0ZmhQvLWOzmhaZPS9I65xArzjHHXRHfSygjdaoLiAdxqs7WzMgLYHf6WBJuJn7cleUYe5xcrUO34E3kO+BG5BsTKynvjudygQuFkYSKx8N//ZgG7bNZWnGkVLbsyANqs+3dZa7YsRnaehB45FPlDoGZozPYNe1jR4owXXA2ovKJueiRlQMxLsfylmHuiM3ZWQuLGVV7hVRG64g6DhSjODCoxg+EUy4wAZpSpvCKzU5TIDzlUzNczc5TUtLjRdPxRn74D84PC8XRupZQVawHuR7AaLW2ZeggbFDGBNCXTmGIzC+6LIxJsxdxwqr0p3aiFA00Tjv2oXkBnWY9/5DFb9gZvwuYOME+u2cL5rfe5tOp6ZERjn2hOHuIgEJq6ZO2lbHZQEeoEQ1LKmkCD3PGYmZoCYidDORszwedi22YD7EAi5HEM9g/9UofkysqzBXw+zMOPBVFLvMQXUdW4emHF1oVHZO4a4gFEUEQpAHXT/KRPUsgLtUpgiViY3hJmYEauSWxETGD3vkdDYmqlGDQl123aciRn6PMzYIeb7NMzI0OJCu+BvhgSgt3rO7YSKwi+eGTUPzJARM6J9h1/CE9C7CwgFd5OMF5lh7Sa/ZttNTJkRQtP9B7vJETv9U9NHx56rpoqunikxXrvMIPo9ei85QfonjNIeemDGGamB7kAN9IGrge5wNdASb0jdlRmXLGZkMteX3uuQDI3O3T8gwj/RM5LMS9Cg9IzsbHqGr441Vil5Pist73SeQqs186S2ySNltSJmKLwh0KB292fg4mLSFtTDMAA8R3J2pmEAHNskLBozk22Snt02KeLMwIPaglg8CaxNZB8MufHgz0ALMV2En9CfQWd6QqCYmxVyiz6JP+OUYoYWOeP7tHiACVKeeiQ4wPF0iSQQeO2BpSxmRozydAGVWeRkJXruYH5Qr8Wt2BDUZPoUPuZrdx+oHWy99eADheT5Yf0b6/fB6z3ZcK03GesELUbXpzPzwofSeeXqPN4uelntNXk6HyhwW9E+UJl/gyS5pYXwTBgvh1PgPd9QuLN1QhoeDEDzJXI4/eCba9wE5Q/bbtImZpzMHTfx4erF2ZWHijQWirDlTtVbaCEh6i4NXuksf7wddINxE3G8FywzYEYC/JtrTME4P1B2iEaxrJQHElgxLBHuhG4s7Zo9EMVagZK6M3ustYfFWtnxYbiZCJgxQU6M2bcRCFi74c0+SfnxJDuaGVCSe4+1inNRQXgMMCMddpssTO0BzOj1cWp0XXyheBEQkT56hLJh2NbJBVyOPfst3YVm6/rDF9YQlPO18dOWKnhFwdz5GShzR2OXlVx58Wqgd8xLmkaqJrO6S4NlBf4GvlM1TtdYJ0WaA2wiFgZ0BHoRN84PrC1kIOH7yZrSFxqvRH62irNojHK6mPmT+1hOF/jsk0tOFyo5gEIF71J5zqDGvZecLrT1BUYsZ/7pSOeU4BKApqYHaqTMlcJ60tPMgMl2PB0UJn3B4nawuzCroaDOAJlRdhEaKVSlBD+j8vS7Id6WcjAkfknqgEgmZK6djxVlVwZ0KFO+YEt/61A1dr6ivQR6PHCNmXHIygE2P0GGMPJosGhs1mBG9jw0S0C1gJJLoobdnhxJDYf6CK1gjkILMq6QUAEbEMs4isGZQWZAY4rt7ELFKLhTpUPW9ijnTIuw1yEKwVRKJ8FyxyMX9ONuu+eO/6SosfObmTveFGnMIY+54zlcBaU10GlxrqbxiwoA0kgAS/zm0mYPYVA9CktTBbnjzN0h7swdBxVnLK214GQGykFm5vvhxUjYx+f4kptFw91Bg1D969E81ZdA6dOS5QJRI0O+cbkrrL4Dd5Lu4PUmD98wbuze4aVI68h9nibUIiK1uTcgpiiqRLrUuXM9AnONnLmKDaRq+GU5ycniSSewo3Ho5Aq0DSWgQuuoEzJWFao0jNKlsMPULaP3HzEjDfojsKiBFxXgzKjTJ3KazY0Gzfx96KDXOwjlm5v0QWqKM2yPssdNL8EEPtbWDd5TI0PUqP0gqhR/39mK6OPdd+ILvEbtntz74HnkoQFVvyisXsTKpjTtGM51fITNVdNFyTsWitiiS1Vm06REAT/ihJ/em4ZvrVSl5E8RlkLLEnYLtJlRlmgca4WAmIH3PKYGpMnyReK7Drnwa3Yh8dpaqWSdq0Z/ycrnuMQjl5nAydXRzf7l0cUeXnWu7RHCe5eoRDPExMPv26+/H9bJT78StyHP9lLWSucDg7p9R6sVYcXzOEDOdXI5Pj2cnAUixFzd1VB8e5blWiGFn+2cLqbKVfyMNUQEhpsKOkiMdzuIESCNHYNBcKAIbyzh/fCLQbwUEWMGWn9ZDsbwG1DnfZF/Yp5RTc6FwixQyU2IfjtaRDdA5UvRQfpf6zQclfCOUCxDwLFOsxd3Sbgk55rRRzpdth/w0rGrmMV7lUjhWqUcTyRSqYTZPK9KnJclYx5OZi08aocTrianjrF0qlxB16D2DfSmG/LK3iFi5ao1IYm2Wn049/xSrZCYkjhWBu2ZJMrTBXDQ9UwNZcj2P+ZORB13TOiH9JgPDmo4QGeJUtXwPLh0Vjnkt42yJYl7TyYT6QJxmJ7ZL0+2/4c8ZU+uYUYBs7MKVlwqS/5aLVup1ojjtijlNIaduyOZP69kq/bvpaBdQI8zY2o7g4sZN6hls+gGUhIoLvSfGO2w3jwGL7boclKI8Qk79QES49g55ptDRlBwhtscahE+O689d3LHQmpogqAxhbhECmMm5HAW1/vYQY+yRJKMPMEx7FBNyRY62O8NK9oWKAQzfAmZewOp4OMxw/JXuHND6QryzFtnAqmhacxuJdzOftbe8vCBNabJm6jS9RA3sXEpaLsT2XPVPhG2K44zOGlINfJoHE44LM7sr2avI8NFVWFz0vSbMJlBHghIDMn6BMzw1fPdLTE3FIUrMCzkjke8x50JcMTzFz41Nr4z3eaGhdJnig11GG26xloh9gMcEaeNJrPF2eKCw7+thlhBylDkBUoT3N5+TtvUQJFJDam67eMww5dinjosW/JIwAyz/6rzpG9EC7V07pouesPeUbQAv83mzo91Jjc21n9wW8XWB6yT7Id13wzM8I0nrF6EWuTE804CkC5XZc4J4IYKUHA4ELjdpWMF1tLJUpYTIw06jwz2B002cJjhi1WccsmQaOZXQmYYOGh2Wbq+om4NB17SiFn9VzVd7DZ6vHWaJBtUrxUavU1ymoraN8+mRsywPR3v/vqXjf9zdpceT3RysoaVcjJXADadCNbClNJpqqHhbJnh7wYNgJk9hMkTgM3TgVk9hG2Q4soQT5Uphwr2HZxu+0SWMpkkm7lZu+8w/4+s9/Kb/dLUGpy2aVPW+sNmw2sL6tYV4RiIZPau991cA49fCS/GxvrDV7cDC+rR5tCapeV66Q+nZ5bDLLUtYFn/+78A7xhXGR+e7UVMi9VsNxcJnExcp8pFMVGo1vwShGlelLeZEZXtxBQsR3U6lazWZOwqhYQoKlOMGwYJ+Gk1GLN/m7LvwLpBooCm6a+WPQzBUO+F8s3moGOheR/ynCQ6RfvyOjIa6fpoNAoc33h6B3c+fHrYsPH50weXdvQ2evf5fLNjumvBBKHPTvU85fHN0dXk4npyfHgzYzaoE7FEORk0kEyW44nU3McMpOJx6zrleDzhfpGU9eNkPOE5vayYMG5gDCmX562ymx+51njcPm2PWzM8692dL48fPjz+2vFyggUH6DSfmcicMzH/XVd4/QARN1BXucIKFnog2+8PPZd4BRc0BpzccRiKVWer1F3hj8DBeUktMS1oR2OPFd4Oovmh6ahld5A6QF3p/thjRldgIjoAhyExz37Depw++9RWeFGEUGCHUaY2QJHWP/Uw8xV4wPLXFXr1B8hX7r1+e4U/BFhHpjWV6Eh/gKVtzNhDaIU/AXgNhFLatBXN+v05Hnxd6Z9vEPU+EWHdUrrD4bBPxl1XWsabRIjKzHCelaWyChtX+PNx4JKTuHKMv1mISyCUlZLxdtEQlECowxUx3jCi55xUZkXdXHky3jYONlnJqspwFUh786jfD7dwfUNRVHXI7f2xwptCY2A6MswMYVUtdTebq31kBYB69CCUH3Sa9we96EpcPBH+H3sozW+8L8OkAAAAAElFTkSuQmCC;" vertex="1" parent="vc-r3ApyCfsNHIiaNY2c-20">
          <mxGeometry x="15" y="20" width="130" height="22.76" as="geometry" />
        </mxCell>
      </root>
    </mxGraphModel>
  </diagram>
</mxfile>
